PathFileType	3	(X/Y/Z)	D:\minhoCalibration\240510\subject4_KPNP\preferred\preferred01.trc
DataRate	CameraRate	NumFrames	NumMarkers	Units	OrigDataRate	OrigDataStartFrame	OrigNumFrames
200.0	200.0	28	10	mm	200.0	58	100	
Frame#	Time	Left_Ankle_Outer1			Left_Ankle_Inner1			Left_Knee_Outer1			Left_Knee_Inner1			Left_Wrist1			Right_Wrist1			Right_Knee_Inner1			Right_Knee_Outer1			Right_Ankle_Inner1			Right_Ankle_Outer1			
		X1	Y1	Z1	X2	Y2	Z2	X3	Y3	Z3	X4	Y4	Z4	X5	Y5	Z5	X6	Y6	Z6	X7	Y7	Z7	X8	Y8	Z8	X9	Y9	Z9	X10	Y10	Z10	
58	0.28	-470.73941	400.89224	1527.7512	-415.32156	351.96262	1454.7194	-690.81482	627.34131	1128.0353	-595.6322	591.7312	1079.3889	-513.30975	1043.4387	1270.5918	-194.9628	905.77698	1357.7803	-292.76691	507.58673	1124.9475	-213.04132	510.51913	1201.7789	-449.44254	69.802475	1277.5471	-404.45978	78.088242	1312.004
59	0.285	-475.94101	413.27765	1506.0105	-418.41116	365.00092	1433.6013	-687.33752	641.41174	1103.3805	-590.18286	606.71161	1057.131	-508.47095	1051.0587	1261.7284	-195.45015	908.47162	1360.3333	-290.76663	508.82782	1127.3262	-212.58409	512.31573	1205.804	-447.64349	70.984596	1277.387	-403.31497	79.066467	1312.0171
60	0.29	-482.02896	426.06128	1484.4996	-422.41956	378.58136	1413.3162	-682.77289	656.28979	1078.7925	-584.19745	622.09259	1035.1095	-503.25589	1058.6534	1253.1304	-196.51097	910.52612	1362.6975	-289.12289	510.31458	1129.7922	-211.6933	514.0343	1209.782	-446.75436	72.494865	1277.4464	-402.64563	80.355286	1312.3425
61	0.295	-489.1261	439.13516	1463.3342	-427.50995	392.40622	1393.7201	-677.53729	671.97552	1054.1458	-577.06879	637.75928	1013.1532	-497.95255	1066.0818	1244.9958	-197.87761	913.17133	1365.3306	-287.3829	512.06	1131.8729	-211.37157	516.07233	1213.2301	-445.74872	74.019989	1277.11	-402.49207	81.856461	1312.6655
62	0.3	-497.14987	452.66928	1442.556	-433.38995	405.88858	1374.4135	-671.11261	688.38092	1029.6068	-569.18219	654.11371	991.76837	-492.35675	1073.4521	1237.3181	-199.06412	915.35107	1367.9917	-285.6405	513.5741	1133.8322	-210.74658	518.03979	1216.587	-445.68427	76.03006	1276.9	-402.0751	83.487953	1312.6488
63	0.305	-506.00677	466.75626	1421.8848	-439.19818	420.25531	1356.1445	-663.54443	705.43988	1005.4362	-560.67017	670.3443	970.85254	-486.29138	1080.3999	1230.1287	-200.58504	917.52606	1370.73	-283.99088	514.95233	1135.8348	-209.93993	519.99048	1219.7012	-444.56168	77.391579	1275.6515	-402.10281	85.251724	1312.6149
64	0.31	-515.63629	481.02039	1401.2764	-446.81061	434.98993	1338.4858	-654.44171	723.03571	981.83862	-550.28143	687.43066	950.17712	-480.58481	1087.485	1223.3722	-201.92577	919.66852	1373.8134	-281.77856	516.9541	1137.3398	-208.97328	521.93054	1222.8577	-444.82697	79.754646	1275.0071	-402.26917	87.070534	1312.1422
65	0.315	-526.3045	495.86475	1381.6672	-455.57764	449.48465	1321.0051	-644.25507	741.29901	958.51086	-539.42993	704.60931	930.61975	-474.45508	1094.5941	1216.8055	-203.88554	921.4353	1376.7009	-278.97327	518.71759	1138.202	-207.9817	523.79962	1225.5764	-444.2261	81.233788	1273.0922	-402.76312	88.981651	1311.4456
66	0.32	-537.59625	511.13992	1361.7184	-464.28656	464.22403	1304.1801	-632.74158	759.87305	935.86133	-528.06964	721.63	912.43622	-467.85162	1101.3778	1210.5132	-206.11058	923.0282	1379.96	-276.89255	520.56323	1139.6909	-206.81795	525.66748	1228.3459	-444.35666	83.503845	1271.4072	-403.28336	90.841438	1310.1797
67	0.325	-549.57947	527.03931	1341.7218	-474.38834	479.54904	1287.7972	-619.521	778.71545	913.76062	-514.15717	739.32733	893.9314	-461.28024	1108.4434	1204.3441	-208.38895	924.23645	1383.328	-273.38797	522.19366	1140.0465	-205.61778	527.34937	1230.8772	-445.34146	86.588783	1269.9924	-404.73776	93.174454	1309.4534
68	0.33	-562.20056	543.55463	1321.395	-485.58142	494.73438	1271.9529	-605.22766	798.14716	892.52002	-501.26666	756.16742	878.74481	-454.60559	1115.2595	1198.9778	-211.15857	925.17395	1386.4022	-268.95129	524.0332	1139.9352	-204.47714	529.06525	1233.2896	-445.70761	89.310059	1267.8027	-405.92215	95.395416	1308.0636
69	0.335	-575.3222	560.9649	1300.7635	-497.70938	510.06	1254.9949	-590.00006	817.83917	872.47284	-485.54813	773.33582	862.55182	-448.06943	1121.5728	1194.3152	-214.51376	925.64172	1390.4952	-264.84552	525.70343	1140.2715	-203.22179	530.73016	1235.8802	-446.79599	92.228569	1265.1183	-407.31699	97.81823	1306.2607
70	0.34	-588.90765	578.86285	1279.778	-510.89514	525.68835	1238.1525	-573.26459	837.44275	853.5155	-470.61084	789.58899	848.78864	-440.89365	1128.3022	1189.1531	-217.96397	925.75562	1394.1759	-260.17459	527.08551	1140.0333	-202.2941	532.30261	1237.8534	-446.67609	94.590561	1261.8207	-408.69272	100.35314	1304.1171
71	0.345	-602.89502	597.35272	1258.2174	-524.7326	541.44281	1220.8168	-556.0296	857.23907	836.29547	-454.74164	805.82159	836.26819	-433.87106	1134.2318	1185.0807	-222.31104	925.29572	1398.5461	-254.54286	528.49609	1139.2758	-201.49019	534.01343	1239.7126	-446.84412	97.153816	1258.8102	-410.18594	103.06824	1301.8187
72	0.35	-617.17328	616.70044	1236.1129	-539.6344	557.42627	1202.6799	-537.02362	876.47125	820.08185	-438.22888	820.67932	824.58685	-426.2547	1140.2782	1181.0569	-226.88318	924.80597	1402.3	-249.14339	530.02289	1138.9574	-200.5807	535.59894	1241.5977	-447.85788	100.28711	1255.2335	-411.65063	105.64084	1299.2427
73	0.355	-631.9267	636.7627	1213.2069	-555.34674	574.12891	1183.9852	-517.54956	895.26538	806.20984	-421.03799	835.59674	814.75043	-419.78674	1145.5194	1178.4896	-232.00822	923.57153	1405.6934	-244.07089	531.30371	1139.2526	-200.13321	537.27142	1242.7493	-447.84738	102.54696	1251.4373	-413.11795	108.19974	1296.3767
74	0.36	-646.63831	657.28082	1189.3029	-571.42712	591.01715	1163.9152	-496.70908	913.55206	793.41656	-403.44028	848.98328	805.96545	-412.76025	1150.5574	1175.5503	-238.08803	922.47437	1409.2711	-238.82579	532.30853	1139.0425	-199.62474	539.08783	1244.126	-448.34451	105.15903	1247.351	-414.48746	110.61656	1293.2457
75	0.365	-661.31927	678.45221	1164.3889	-588.52917	608.97711	1142.9586	-474.98264	930.61542	783.22583	-386.806	861.63458	799.54034	-405.7019	1155.1709	1173.001	-244.98544	920.89612	1411.5516	-233.3166	533.9743	1138.8987	-199.31403	540.76215	1245.0978	-448.27661	107.35797	1243.0255	-415.85257	112.90173	1289.8171
76	0.37	-675.65735	700.08484	1138.296	-605.52167	627.17072	1120.278	-452.74057	947.11938	774.5733	-368.98697	873.54602	794.09088	-398.98627	1159.1534	1170.8702	-252.25502	919.24762	1414.1301	-228.56639	535.13391	1138.954	-199.19054	542.47754	1246.0155	-448.46808	109.36946	1238.6826	-417.22269	114.88795	1286.1216
77	0.375	-689.97278	722.83569	1110.8926	-623.09973	646.02637	1095.5126	-430.37543	962.23438	767.94238	-351.44489	883.82831	789.20337	-392.17325	1162.8915	1168.9053	-260.01501	917.0863	1415.9048	-224.28006	536.33685	1139.1804	-199.1366	544.21301	1247.1926	-448.30344	111.15437	1233.5167	-418.7605	116.74076	1282.2562
78	0.38	-703.37836	746.02985	1081.7928	-640.54932	665.86548	1068.7626	-407.86014	976.54034	763.117	-336.19897	892.38623	786.87195	-385.65332	1166.1498	1167.1475	-268.4115	915.19482	1417.6847	-220.23285	537.36462	1138.9852	-199.84299	545.5213	1247.4464	-448.26685	112.71918	1228.5978	-420.20975	118.28327	1278.1771
79	0.385	-716.12006	770.17175	1051.1522	-657.44653	687.01483	1040.8701	-385.24747	989.42975	759.71216	-320.67041	900.31671	784.85425	-379.43533	1168.8668	1165.9407	-277.1604	913.10577	1418.7493	-217.7314	538.37848	1139.4623	-200.33632	547.30896	1248.9819	-448.05524	114.0498	1223.5802	-421.81415	119.71514	1273.951
80	0.39	-727.66266	794.72961	1018.3911	-672.90454	708.6369	1010.8787	-363.46948	1000.3983	757.73877	-306.08023	907.12018	783.56769	-373.64716	1171.4159	1164.7318	-286.09741	911.03131	1419.0717	-215.14516	539.16638	1139.4391	-202.0434	547.98645	1248.7128	-448.0976	115.45589	1218.5551	-423.48926	121.03488	1269.6698
81	0.395	-737.71002	819.97748	983.65027	-687.23383	731.37665	978.64832	-342.35498	1009.7091	757.09711	-292.57803	912.89331	782.92981	-368.15033	1173.3719	1163.6243	-295.08249	908.83179	1418.5905	-212.53333	539.90552	1138.8551	-203.94904	548.95959	1249.2189	-448.77905	116.41965	1213.8422	-425.22031	122.16505	1265.196
82	0.4	-745.94885	846.12061	947.13306	-700.08923	754.54816	943.30328	-322.16461	1017.4557	757.57153	-279.96146	917.67853	782.73987	-362.94272	1175.2585	1162.6748	-304.08441	906.88721	1417.3038	-211.19165	540.47192	1138.5042	-206.19977	549.71667	1249.4768	-449.19382	117.29819	1208.6149	-427.21246	123.18239	1260.734
83	0.405	-751.57166	872.69971	908.36963	-710.66345	778.81335	906.51172	-303.28162	1023.5519	759.03357	-269.25964	921.43176	783.13593	-358.53967	1176.8584	1161.8953	-312.84296	905.14777	1415.073	-210.66953	541.11713	1138.1593	-208.86844	550.22595	1249.2338	-450.3764	118.20278	1203.5409	-429.70633	124.32243	1256.4014
84	0.41	-755.08087	899.57697	868.4917	-719.20331	804.37958	868.88947	-285.94031	1028.2036	761.4043	-260.11667	924.40668	783.91437	-354.57629	1178.132	1161.2084	-321.09564	903.53558	1411.9551	-209.97064	541.39703	1136.8884	-211.89806	550.57056	1248.9225	-451.57059	118.7483	1198.7422	-432.04291	124.84641	1251.5763
85	0.415	-755.36993	926.65979	826.60693	-724.97638	829.67914	827.19141	-270.41818	1031.4604	764.39056	-252.5096	926.7677	784.63806	-351.10568	1179.6597	1160.691	-328.81863	902.16327	1408.6074	-209.71405	541.69403	1135.3262	-215.05884	550.73193	1248.3378	-452.82739	119.33798	1193.1072	-435.05862	125.69603	1247.23
